Motion_pu05
version=1
nRows=12
nColumns=43
inDegrees=yes
endheader
time	pelvis_tilt	pelvis_list	pelvis_rotation	pelvis_tx	pelvis_ty	pelvis_tz	hip_flexion_r	hip_adduction_r	hip_rotation_r	knee_angle_r	ankle_angle_r	subtalar_angle_r	mtp_angle_r	hip_flexion_l	hip_adduction_l	hip_rotation_l	knee_angle_l	ankle_angle_l	subtalar_angle_l	mtp_angle_l	lumbar_extension	lumbar_bending	lumbar_rotation	neck_flexion	neck_lateral_bending	neck_rotation	arm_flex_r	arm_add_r	arm_rot_r	elbow_flex_r	pro_sup_r	wrist_flex_r	wrist_dev_r	hand_finger_flex_r	arm_flex_l	arm_add_l	arm_rot_l	elbow_flex_l	pro_sup_l	wrist_flex_l	wrist_dev_l	hand_finger_flex_l
      1.23250000	      3.43570973	      0.19377681	    -92.01414910	     -0.04019517	      0.83050010	      1.27745255	      5.95912810	    -12.48673145	    -11.92629762	    -86.38739285	    -12.02812548	    -21.44231673	      4.04325615	     11.02861754	     -6.88445477	    -11.41019288	    -87.15825826	    -17.74074294	     -7.06671057	     20.37137339	     13.27712259	     -4.96478824	      7.88368640	     58.94341986	      0.02870158	     -9.11198180	    -10.99531511	   -157.16470236	   -127.34131441	     33.47112716	    124.05723701	     29.64040124	     -9.21894037	     70.14287680	    163.78235963	    -11.72572233	     48.68754937	     24.89198983	    118.62701910	      3.59303889	     -5.59509178	     77.64487734
      1.23500000	      3.42060795	      0.15992417	    -92.05686177	     -0.04064016	      0.83061900	      1.27854680	      5.93292265	    -12.53150785	    -12.06399227	    -86.58789787	    -12.08353371	    -21.42987409	      4.01201205	     10.93855919	     -6.95739932	    -11.37992711	    -87.24505492	    -17.79965640	     -7.09751719	     20.30763436	     13.33824418	     -4.95584951	      7.97591737	     58.95701807	      0.00152683	     -9.10842741	    -11.08575762	   -157.24517550	   -127.66941280	     33.24976337	    124.05723734	     29.67670269	     -9.22103262	     70.14038541	    163.67919567	    -11.66725982	     48.66799606	     24.83289867	    118.63641953	      3.60287422	     -5.58525278	     77.66421653
      1.23750000	      3.41052464	      0.14542214	    -92.04937792	     -0.04061213	      0.83083913	      1.27938792	      5.93328466	    -12.53633845	    -12.06306046	    -86.59582569	    -12.08487717	    -21.43011177	      4.01110182	     10.93101289	     -6.95381884	    -11.38302027	    -87.25490092	    -17.80282809	     -7.09764877	     20.30578767	     13.35892958	     -4.95244733	      7.97631141	     58.95655937	      0.00057080	     -9.10834073	    -11.07344672	   -157.25283338	   -127.68155399	     33.25446985	    124.05774473	     29.67733260	     -9.22133049	     70.14043223	    163.68569873	    -11.66479642	     48.66543483	     24.83358179	    118.63636563	      3.60222994	     -5.58520335	     77.66472069
      1.24000000	      3.39087166	      0.18539060	    -92.01368805	     -0.04022549	      0.83096638	      1.28080839	      5.87501361	    -12.55897340	    -12.06516659	    -86.68287935	    -12.10038092	    -21.42832445	      4.00562955	     10.82085555	     -6.93791350	    -11.38462094	    -87.34284951	    -17.82844830	     -7.09902649	     20.29546021	     13.47802198	     -4.90678037	      7.99216260	     58.95476347	     -0.00487540	     -9.10779981	    -11.01645214	   -157.29176342	   -127.76716933	     33.25652938	    124.06143280	     29.68186575	     -9.22144952	     70.14093911	    163.71211037	    -11.63962045	     48.65381732	     24.83481279	    118.63617424	      3.60006314	     -5.58474365	     77.66749662
      1.24250000	      3.38760499	      0.17084650	    -92.01500769	     -0.04012301	      0.83112342	      1.28157710	      5.87443005	    -12.56134150	    -12.07136343	    -86.69803281	    -12.10370315	    -21.42712653	      4.00455228	     10.81339875	     -6.93865622	    -11.38341232	    -87.35296626	    -17.83262055	     -7.09985959	     20.29333714	     13.49568920	     -4.90350934	      7.99522043	     58.95427249	     -0.00652551	     -9.10763515	    -11.01070273	   -157.29927229	   -127.78644807	     33.25071011	    124.06255949	     29.68330877	     -9.22109468	     70.14105266	    163.71229433	    -11.63528531	     48.65207205	     24.83258283	    118.63632839	      3.60006240	     -5.58431328	     77.66812478
      1.24500000	      3.30723483	      0.02787620	    -92.12454570	     -0.04058962	      0.83169074	      1.28358491	      5.74694300	    -12.72585891	    -12.23361806	    -86.90949155	    -13.13049900	    -21.12437494	      3.45329107	     10.48881529	     -7.05239181	    -11.45188993	    -87.28551697	    -19.08531968	     -7.60600338	     19.21469280	     13.55554072	     -4.74491631	      7.84922268	     58.59067796	     -0.21337841	     -8.95902427	    -11.62003851	   -157.62395541	   -129.17457570	     33.15355824	    125.32461150	     30.42139758	     -8.96175896	     70.16091949	    163.66010608	    -11.61363926	     48.27439400	     24.53282289	    118.84905102	      3.87066797	     -5.58234318	     78.05827637
      1.24750000	      3.29890512	      0.03590130	    -92.09826478	     -0.04034584	      0.83182523	      1.28464295	      5.71509392	    -12.73938106	    -12.23625827	    -86.96944671	    -13.13248362	    -21.12780104	      3.44952846	     10.43291517	     -7.05115114	    -11.45543412	    -87.34232311	    -19.09210132	     -7.61175164	     19.20591279	     13.62308786	     -4.72577644	      7.86330607	     58.59252928	     -0.21222762	     -8.95902606	    -11.58639657	   -157.64434347	   -129.21536109	     33.14049004	    125.32361295	     30.42295598	     -8.96508245	     70.16013570	    163.66581337	    -11.59870095	     48.27288693	     24.53266945	    118.85152045	      3.87242373	     -5.58230705	     78.06130252
      1.25000000	      3.29894704	      0.01843065	    -92.09591198	     -0.04025561	      0.83198061	      1.28538347	      5.71698629	    -12.74135831	    -12.23976140	    -86.98038030	    -13.13303103	    -21.12791014	      3.44899931	     10.42897191	     -7.05256695	    -11.45503063	    -87.35146665	    -19.09302693	     -7.61297102	     19.20460210	     13.63818662	     -4.72217828	      7.86629257	     58.59262545	     -0.21241462	     -8.95899311	    -11.58021445	   -157.64892409	   -129.22560105	     33.13652254	    125.32361918	     30.42332030	     -8.96542819	     70.16005040	    163.66645389	    -11.59494297	     48.27265592	     24.53214696	    118.85189982	      3.87276279	     -5.58222282	     78.06177395
      1.25250000	      3.25762539	     -0.04071197	    -92.13086433	     -0.04067031	      0.83211374	      1.28679086	      5.67059906	    -12.84775625	    -12.41538185	    -87.32698193	    -13.19346474	    -21.10635465	      3.42373432	     10.27919549	     -7.14192625	    -11.43016073	    -87.54744375	    -19.13208578	     -7.66516115	     19.15118288	     13.73131528	     -4.66515187	      7.98810908	     58.56687195	     -0.24145261	     -8.95516983	    -11.70640945	   -157.78246446	   -129.58322972	     32.87048225	    125.32949656	     30.45774866	     -8.97321526	     70.15653090	    163.51895580	    -11.53382648	     48.28408824	     24.41718061	    118.87372574	      3.90145279	     -5.56674235	     78.08061084
      1.25500000	      3.24384609	     -0.03271568	    -92.11408551	     -0.04030929	      0.83235029	      1.28791609	      5.64814103	    -12.89097112	    -12.42558862	    -87.38348724	    -13.21195278	    -21.10140453	      3.41602880	     10.21261558	     -7.14554322	    -11.44687531	    -87.60386597	    -19.14844692	     -7.67605813	     19.13617613	     13.79528666	     -4.61826923	      7.98112958	     58.54631289	     -0.25721103	     -8.95333291	    -11.67579333	   -157.82439752	   -129.67569790	     32.88283616	    125.33566392	     30.46566653	     -8.97691310	     70.15625010	    163.53209160	    -11.52477064	     48.27376328	     24.40114532	    118.87703064	      3.90338996	     -5.56455373	     78.08529790
      1.25750000	      3.22398208	     -0.09863695	    -92.20157881	     -0.04061220	      0.83261023	      1.28893549	      5.63261416	    -13.11866745	    -12.65656367	    -87.55702811	    -13.54713684	    -20.96292442	      3.28161871	     10.06793075	     -7.32966294	    -11.69341017	    -87.63517603	    -19.31838261	     -7.90531597	     18.87791044	     13.80151728	     -4.54007923	      7.84305272	     58.21102451	     -0.52148555	     -8.90233203	    -12.04145998	   -158.07358490	   -130.58176876	     32.82246797	    125.56799475	     30.64565288	     -8.97608769	     70.15208118	    163.63833311	    -11.57696648	     48.12368684	     24.15116338	    118.93708919	      3.97408503	     -5.54378547	     78.17712989
      1.26000000	      3.22343529	     -0.11668871	    -92.18859823	     -0.04041922	      0.83284002	      1.28970849	      5.63036483	    -13.12102115	    -12.65383542	    -87.56886559	    -13.54905400	    -20.96304017	      3.28064863	     10.06002428	     -7.32981900	    -11.69130378	    -87.64732221	    -19.32036685	     -7.90776381	     18.87580145	     13.82468850	     -4.53366036	      7.85198185	     58.21149668	     -0.52050016	     -8.90196774	    -12.03506053	   -158.07722367	   -130.59117950	     32.82014520	    125.57092446	     30.64652603	     -8.97545342	     70.15211310	    163.64177414	    -11.56895247	     48.12394916	     24.15353873	    118.93760849	      3.97530190	     -5.54446781	     78.17800250
